<?xml version="1.0" encoding="UTF-8"?>
<svg id="Ebene_1" xmlns="http://www.w3.org/2000/svg" width="40.854532mm" height="40.8526803mm" version="1.1" viewBox="0 0 115.8081239 115.802875">
  <!-- Generator: Adobe Illustrator 29.5.0, SVG Export Plug-In . SVG Version: 2.1.0 Build 137)  -->
  <defs>
    <style>
      .st0 {
        fill: #010101;
      }

      .st1 {
        fill: #fff;
      }

      .st2 {
        fill: #e52521;
      }
    </style>
  </defs>
  <rect class="st1" width="115.802875" height="115.802875"/>
  <path class="st0" d="M75.5966272,97.4627698h-24.4914509l-8.5892575-19.7326709c-1.277078-2.9014183-1.3928321-3.1336831-2.5533994-5.5713285-.5810402.8125484-2.9021749,4.0627422-3.3667045,4.75878l-14.2770966,20.5452194H1.4262366l30.1785335-41.321947L14.4262552,20.0421855h24.607205l36.563167,77.4205843Z"/>
  <polygon class="st2" points="110.9819886 20.0421855 92.0958169 20.0421855 71.0707712 20.0421855 68.2596203 36.8726815 89.3404152 36.8726815 79.4208366 97.4627698 101.5911529 97.4627698 114.3818873 20.0421855 110.9819886 20.0421855"/>
  <polygon class="st0" points="65.7570955 38.9242712 68.9259188 20.0421912 63.9894563 20.0421912 50.2505647 38.9976965 58.0441438 55.5001379 70.5361482 38.9242712 65.7570955 38.9242712"/>
</svg>