<?xml version="1.0" encoding="UTF-8"?>
<svg id="Ebene_1" xmlns="http://www.w3.org/2000/svg" width="115" height="115" version="1.1" viewBox="0 0 115 115">
  <!-- Generator: Adobe Illustrator 29.4.0, SVG Export Plug-In . SVG Version: 2.1.0 Build 152)  -->
  <defs>
    <style>
      .st0 {
        fill: red;
      }
    </style>
  </defs>
  <path d="M74.6464824,94.0035346h-23.0952668l-8.0996097-18.6077706c-1.2042756-2.7360172-1.3134309-2.9550412-2.4078378-5.2537237-.5479169.7662275-2.7367306,3.8311375-3.1747787,4.4874962l-13.4632021,19.3739981H4.7043233l28.4581458-38.9663067L16.9632498,20.9964654h23.2044221l34.4788105,73.0070691Z"/>
  <polygon class="st0" points="108.0146306 20.9964654 90.2051029 20.9964654 70.3786319 20.9964654 67.7277363 36.8675054 87.6067783 36.8675054 78.2526852 94.0035346 99.1591382 94.0035346 111.2207112 20.9964654 108.0146306 20.9964654"/>
  <polygon points="65.3678729 38.8021402 68.3560511 20.9964708 63.7010016 20.9964708 50.745323 38.8713797 58.0946135 54.4330664 69.8744862 38.8021402 65.3678729 38.8021402"/>
</svg>