<?xml version="1.0" encoding="UTF-8"?>
<svg id="Ebene_1" xmlns="http://www.w3.org/2000/svg" width="99.381152mm" height="40.8526803mm" version="1.1" viewBox="0 0 281.7103563 115.802875">
  <!-- Generator: Adobe Illustrator 29.5.0, SVG Export Plug-In . SVG Version: 2.1.0 Build 137)  -->
  <defs>
    <style>
      .st0 {
        fill: #010101;
      }

      .st1 {
        fill: #fff;
      }

      .st2 {
        fill: #e52521;
      }
    </style>
  </defs>
  <rect class="st1" width="281.7103563" height="115.802875"/>
  <path class="st0" d="M110.4493993,95.952188h-24.4914509l-8.5892575-19.7326709c-1.277078-2.9014183-1.3928321-3.1336831-2.5533994-5.5713285-.5810402.8125484-2.9021749,4.0627422-3.3667045,4.75878l-14.2770966,20.5452194h-20.8924817l30.1785335-41.321947-17.1785149-36.0986374h24.607205l36.563167,77.4205843Z"/>
  <polygon class="st2" points="92.8969 53.9895742 119.6189344 18.5316036 98.8422069 18.5316036 85.1033101 37.4870954 92.8969 53.9895742"/>
  <polygon class="st0" points="139.1139147 95.952188 116.9435985 95.952188 126.0294318 40.4696551 148.3155022 40.4696551 139.1139147 95.952188"/>
  <path class="st0" d="M191.0851592,57.4551601c-1.7777957-4.3333318-6.1111275-5.3333872-10.2214202-5.3333872-3.4440719,0-5.777293,1.2223703-5.777293,3.222481,0,2.6663315,2.2217015,3.1102373,6.6658288,3.9994973,10.6660502,2.2217015,12.8877517,2.8886465,16.1095086,4.7772376,5.3333872,3.1109615,8.2220337,7.5550887,8.2220337,13.4431771,0,6.3327184-4.0002214,19.6651-27.4425037,19.6651-7.7766795,0-15.1094532-1.4446853-20.8867462-5.4441826-5.4441826-3.6663869-6.6658288-7.8881991-7.5550887-10.9991606l17.109564-2.4440165c.8892599,2.0001107,2.4447407,5.8880884,11.554586,5.8880884,5.999608,0,7.2219783-2.3332211,7.2219783-3.4440719,0-2.1109061-1.2223703-2.3332211-10.7768456-4.4441272-6.1104034-1.4439612-19.887415-4.4441272-19.887415-17.2203594,0-9.1105694,6.7773483-19.3312655,25.220078-19.3312655,6.6658288,0,12.6654367,1.3331658,18.2204147,4.6657181,5.8880884,3.4440719,7.3327737,6.8881437,8.2213095,9.4436798l-15.997989,3.5555914Z"/>
  <polygon class="st2" points="242.9297883 18.5316036 224.0436166 18.5316036 203.0185709 18.5316036 200.2074199 35.3620996 221.2882149 35.3620996 211.3686363 95.952188 233.5389526 95.952188 246.329687 18.5316036 242.9297883 18.5316036"/>
</svg>